<svg width="100" height="100" fill="none" xmlns="http://www.w3.org/2000/svg"><path d="M23.3 88.4c19.2 0 32.4 10 41.6 10 9.3 0 28.7-5.3 28.7-48C93.6 8 67.5 1.7 57.3 1.7c-47.7 0-68 86.8-34 86.8Z" fill="#EFEFEF"/><path d="m88.8 21.3 2-2 3.9 4-2 2-3.9-4ZM77.5 10l2-2 3.9 4-2 2-3.9-4ZM88.8 12.5l4-4 1.9 2-4 4-1.9-2Z" fill="#A4AFC1"/><path d="M54.9 73s.6 4.8 4 8.3h.1-18c3.4-3.5 4-8.4 4-8.4H55Z" fill="#EE4248"/><path d="M78.5 29.9c1.5 0 2.8 1.2 2.8 2.7v30.6H18.8V32.6c0-1.5 1.2-2.7 2.7-2.7h57Z" fill="#F3F3F1"/><path d="M21.5 73h57c1.5 0 2.8-1.3 2.8-2.9v-7H18.8v7c0 1.6 1.2 2.8 2.7 2.8ZM69.4 39.6a7.6 7.6 0 1 0 0-15.3 7.6 7.6 0 0 0 0 15.3ZM32.8 56.3a5.6 5.6 0 0 1-5.7-5.5c0-3 2.5-5.4 5.7-5.4.7-4 4.4-7.2 8.9-7.2 3.5 0 6.6 2 8 4.8 3.7.2 6.6 3.1 6.6 6.6 0 3.7-3.2 6.6-7 6.6H32.8Z" fill="#EE4248"/><path d="M45 73s-.6 4.8-4 8.3h6.2c3.5-3.5 4.1-8.4 4.1-8.4h-6.2ZM25 70.1v-7h-6.3v7c0 1.6 1.3 2.8 2.8 2.8h6.3a2.8 2.8 0 0 1-2.8-2.8ZM68 32c0-3.2 2-5.8 4.6-7a7.6 7.6 0 1 0 0 14 7.6 7.6 0 0 1-4.5-7ZM33.3 50.8c0-3 2.6-5.4 5.7-5.4h.1c.5-3 2.7-5.6 5.7-6.7-1-.3-2-.5-3.1-.5a8.7 8.7 0 0 0-8.8 7.2h-.1a5.6 5.6 0 0 0-5.7 5.4c0 3 2.5 5.5 5.7 5.5H39a5.6 5.6 0 0 1-5.7-5.5Z" fill="#EE4248"/><path d="M27.8 29.9h-6.3a2.8 2.8 0 0 0-2.8 2.7v30.6H25V32.6c0-1.5 1.3-2.7 2.8-2.7Z" fill="#D5DBE1"/><path d="M78.5 75h-57a4.9 4.9 0 0 1-4.8-4.9V32.6c0-2.6 2.1-4.8 4.8-4.8H50v4.1H21.5c-.4 0-.7.4-.7.7v37.5c0 .4.3.7.7.7h57c.3 0 .7-.3.7-.7V47.2h4.1v23c0 2.6-2.1 4.8-4.8 4.8Z" fill="#000"/><path d="M18.8 61.1h62.5v4.2H18.8V61ZM59 83.3H41a2 2 0 0 1-1.5-3.5c3-3 3.5-7.1 3.5-7.2l4.1.6c0 .2-.4 3-2 6h9.8c-1.7-3-2-5.8-2.1-6l4.1-.6s.6 4 3.3 7a2 2 0 0 1-1.2 3.7ZM69.4 41.7a9.7 9.7 0 1 1 0-19.5 9.7 9.7 0 0 1 0 19.5Zm0-15.3a5.6 5.6 0 1 0 0 11.1 5.6 5.6 0 0 0 0-11.1Z" fill="#000"/><path d="M67.4 37.5h4.1v9.7h-4.1v-9.7ZM67.4 16.7h4.1v9.7h-4.1v-9.7ZM73.3 27.3l8.8-4.8 2 3.7-8.9 4.7-2-3.6ZM54.8 37.7l9-4.8 1.9 3.7-8.9 4.7-2-3.6ZM54.9 26.2l2-3.7 8.8 4.8-2 3.7-8.8-4.8ZM73.3 36.6l2-3.7 8.8 4.8-2 3.7-8.8-4.8ZM49.3 58.3H32.8a7.7 7.7 0 0 1-7.8-7.5c0-3.6 2.7-6.6 6.2-7.3A11 11 0 0 1 41.7 36c3 0 6 1.3 8 3.4l-3 2.9a7 7 0 0 0-5-2.1 6.7 6.7 0 0 0-6.8 5.4 2 2 0 0 1-2 1.8c-2.1 0-3.7 1.5-3.7 3.3 0 1.9 1.6 3.4 3.6 3.4h16.5c2.7 0 4.9-2 4.9-4.6 0-.3 0-.6-.2-1l4-1c.2.6.3 1.3.3 2 0 4.8-4 8.7-9 8.7Z" fill='currentColor'/></svg>