<svg width="66" height="36" fill="none" xmlns="http://www.w3.org/2000/svg"><path d="M.6 35V.9h11c3 0 5.7.7 8.1 2 2.4 1.4 4.3 3.3 5.6 5.8 1.4 2.5 2 5.3 2 8.4v1.6c0 3-.6 5.9-1.9 8.4a14.5 14.5 0 0 1-5.6 5.8c-2.4 1.4-5 2-8 2.1H.6ZM8.8 7.2v21.5h2.9c2.3 0 4.1-.9 5.4-2.5 1.3-1.7 1.9-4.2 1.9-7.5v-1.5c0-3.3-.6-5.8-1.9-7.5a6.5 6.5 0 0 0-5.5-2.5H8.8Z" fill="#85171A"/><path d="M46.8 26c0-1.3-.4-2.2-1.3-2.9-.8-.7-2.3-1.4-4.5-2a43 43 0 0 1-5.2-2.2c-4.4-2.1-6.6-5.1-6.6-9A8 8 0 0 1 30.8 5c1.1-1.5 2.7-2.6 4.7-3.4a18 18 0 0 1 13.4.1c2 .9 3.4 2.1 4.5 3.8C54.5 7 55 8.9 55 11h-8.2c0-1.4-.4-2.5-1.3-3.2a5 5 0 0 0-3.4-1.2c-1.5 0-2.6.3-3.5 1a3 3 0 0 0-1.3 2.5c0 .8.5 1.6 1.4 2.4 1 .7 2.6 1.4 5 2.2 2.4.7 4.3 1.5 5.8 2.4 3.7 2.1 5.5 5 5.5 8.8 0 3-1 5.3-3.3 7a15 15 0 0 1-9.3 2.6c-2.8 0-5.3-.5-7.5-1.5-2.3-1-4-2.4-5-4a10.7 10.7 0 0 1-1.8-6h8.3c0 1.8.5 3.1 1.4 4 1 .9 2.5 1.3 4.6 1.3 1.4 0 2.4-.3 3.2-.9a3 3 0 0 0 1.2-2.5Z" fill="#DC2025"/><path d="M65.6 35h-8.2V.9h8.2V35Z" fill='currentColor'/></svg>