<svg width="100" height="100" fill="none" xmlns="http://www.w3.org/2000/svg"><path d="M75 10.9c-19.3.3-32.6-9.4-41.9-9.2-9.3.2-28.6 5.9-27.8 48.4.8 42.6 27 48.4 37.3 48.2 47.6-.9 66.4-88 32.4-87.4Z" fill="#EFEFEF"/><path d="m18.3 9.5 4-4 2 2-4 4-2-2ZM7 20.8l4-4 2 2-4 4-2-2ZM7 7l2-2 4 4-2 2-4-4ZM92.3 42.9a4.2 4.2 0 1 1 0-8.3 4.2 4.2 0 0 1 0 8.3Zm0-5.6a1.4 1.4 0 1 0 0 2.8 1.4 1.4 0 0 0 0-2.8Z" fill="#A4AFC1"/><path d="M78.5 31.3h-57a2.8 2.8 0 0 1-2.8-2.8v-7c0-1.5 1.3-2.8 2.8-2.8h57c1.5 0 2.8 1.3 2.8 2.8v7c0 1.5-1.3 2.8-2.8 2.8ZM75 56.3a6.2 6.2 0 1 1 0-12.5 6.2 6.2 0 0 1 0 12.5ZM75 81.3a6.2 6.2 0 1 1 0-12.5 6.2 6.2 0 0 1 0 12.5Z" fill="#EE4248"/><path d="M25 28.5v-7c0-1.5 1.2-2.8 2.8-2.8h-6.3a2.8 2.8 0 0 0-2.8 2.8v7c0 1.5 1.3 2.8 2.8 2.8h6.3a2.8 2.8 0 0 1-2.8-2.8Z" fill="#D5DBE1"/><path d="M75 50c0-2.3 1.3-4.3 3.1-5.4a6.2 6.2 0 0 0-9.3 5.4 6.2 6.2 0 0 0 9.3 5.4c-1.8-1.1-3.1-3-3.1-5.4ZM75 75c0-2.3 1.3-4.3 3.1-5.4a6.2 6.2 0 0 0-9.3 5.4 6.2 6.2 0 0 0 9.3 5.4c-1.8-1.1-3.1-3-3.1-5.4Z" fill="#EE4248"/><path d="M78.5 33.3h-57a4.9 4.9 0 0 1-4.8-4.8v-7c0-2.7 2.1-4.8 4.8-4.8h57c2.7 0 4.8 2.1 4.8 4.8v7c0 2.7-2.1 4.8-4.8 4.8Zm-57-12.5c-.4 0-.7.3-.7.7v7c0 .4.3.7.7.7h57c.4 0 .7-.3.7-.7v-7c0-.4-.3-.7-.7-.7h-57ZM18.8 44.4H59v4.2H18.7v-4.2ZM18.8 52.8H59v4.1H18.7v-4.1ZM18.8 69.4H59v4.2H18.7v-4.2ZM18.8 77.8H59v4.1H18.7v-4.1ZM75 58.3a8.3 8.3 0 1 1 0-16.7 8.3 8.3 0 0 1 0 16.7Zm0-12.5a4.2 4.2 0 1 0 0 8.4 4.2 4.2 0 0 0 0-8.4ZM75 83.3a8.3 8.3 0 1 1 0-16.7 8.3 8.3 0 0 1 0 16.7Zm0-12.5a4.2 4.2 0 1 0 0 8.4 4.2 4.2 0 0 0 0-8.4Z" fill='currentColor'/></svg>