<svg width="100" height="100" fill="none" xmlns="http://www.w3.org/2000/svg"><path d="M88.4 23.3c0 19.2 10 32.4 10 41.6 0 9.3-5.3 28.7-48 28.7C8 93.6 1.7 67.5 1.7 57.3c0-47.7 86.8-68 86.8-34Z" fill="#EFEFEF"/><path d="M9.7 16.7A4.1 4.1 0 0 1 5.6 13a4.1 4.1 0 0 1 3.6-4.6c1.1-.2 2.2.1 3 .8 1 .7 1.5 1.7 1.7 2.8a4.1 4.1 0 0 1-4.2 4.7Zm0-5.6h-.2A1.4 1.4 0 0 0 10 14a1.4 1.4 0 0 0-.2-2.8Z" fill="#A4AFC1"/><path d="M75.7 75.7H24.3c-3 0-5.6-2.5-5.6-5.6V28.5h62.5V70c0 3.1-2.4 5.6-5.5 5.6Z" fill="#F3F3F1"/><path d="M81.3 28.5H18.8v-4.2c0-3 2.4-5.6 5.5-5.6h51.4c3 0 5.5 2.5 5.5 5.6v4.2ZM65.3 81.3a16 16 0 1 0 0-32 16 16 0 0 0 0 32Z" fill="#EE4248"/><path d="M70.1 38.2H30v12.5h40.3V38.2ZM30.6 18.8h-6.3c-3 0-5.6 2.4-5.6 5.5v4.2H25v-4.2c0-3 2.5-5.6 5.6-5.6Z" fill="#EE4248"/><path d="M55.6 65.3a16 16 0 0 1 12.8-15.7 16 16 0 1 0 0 31.3 16 16 0 0 1-12.8-15.6ZM29.9 38.2H36v12.5H30V38.2Z" fill="#EE4248"/><path d="M25 70.1V28.5h-6.3V70c0 3.1 2.5 5.6 5.6 5.6h6.3c-3.1 0-5.6-2.5-5.6-5.6Z" fill="#D5DBE1"/><path d="M65.3 83.3a18 18 0 1 1 0-36.1 18 18 0 0 1 0 36.1Zm0-32a13.9 13.9 0 1 0 0 27.9 13.9 13.9 0 0 0 0-27.8Z" fill="#000"/><path d="M62.5 73a2 2 0 0 1-1.5-.7l-5.5-5.5 3-3 3.9 4 8.3-9.4 3 2.7-9.6 11.1a2 2 0 0 1-1.5.7h-.1ZM45.9 52.8h-16a2 2 0 0 1-2.1-2.1V38.2c0-1.2 1-2 2-2h40.3c1.2 0 2.1.8 2.1 2v3.3h-4.1v-1.2H31.9v8.3h14v4.2ZM28 57h15.9v4h-16v-4ZM28 65.3h15.2v4.1H27.9v-4.2Z" fill="#000"/><path d="M43.3 77.8h-19a7.6 7.6 0 0 1-7.6-7.7V24.3c0-4.2 3.4-7.6 7.6-7.6h51.4c4.2 0 7.6 3.4 7.6 7.6V47h-4.1V24.3c0-2-1.6-3.5-3.5-3.5H24.3c-2 0-3.5 1.6-3.5 3.5v45.8c0 2 1.6 3.5 3.5 3.5h19v4.2Z" fill="#000"/><path d="M18.8 26.4h62.5v4.2H18.8v-4.2Z" fill='currentColor'/></svg>